<svg xmlns="http://www.w3.org/2000/svg" xmlns:xlink="http://www.w3.org/1999/xlink" width="226.17" height="54.314" viewBox="0 0 226.17 54.314">
  <defs>
    <linearGradient id="linear-gradient" x1="0.5" x2="0.5" y2="1" gradientUnits="objectBoundingBox">
      <stop offset="0" stop-color="#a2d100"/>
      <stop offset="1" stop-color="#009233"/>
    </linearGradient>
    <linearGradient id="linear-gradient-2" x1="0.5" x2="0.5" y2="1" gradientUnits="objectBoundingBox">
      <stop offset="0" stop-color="#aad51a"/>
      <stop offset="1" stop-color="#2fa541"/>
    </linearGradient>
  </defs>
  <g id="Logo" transform="translate(-66.683 -2950.027)">
    <g id="Symbol" transform="translate(-157.255 3048.341)">
      <path id="Caminho_93" data-name="Caminho 93" d="M26.778,0C11.728-.124-.188,10.547-.211,26.989c-.014,10.347,9.3,15.889-3.274,18.661,10.793,9.932,30.262,8.328,30.262,8.328A26.989,26.989,0,0,0,26.778,0Z" transform="translate(227.422 -98.073)" fill="url(#linear-gradient)"/>
      <path id="Interseção_1" data-name="Interseção 1" d="M29.531,68.821q-.665-.527-1.295-1.105C40.805,64.943,31.5,59.4,31.51,49.055,31.532,32.612,43.448,21.942,58.5,22.065A27.7,27.7,0,0,1,67.4,23.6,34.622,34.622,0,0,1,29.531,68.821Z" transform="translate(195.701 -120.138)" fill="url(#linear-gradient-2)"/>
      <g id="dots">
        <circle id="Elipse_67" data-name="Elipse 67" cx="3.756" cy="3.756" r="3.756" transform="translate(253.502 -74.157)" fill="#fff"/>
        <circle id="Elipse_70" data-name="Elipse 70" cx="5.634" cy="5.634" r="5.634" transform="translate(238.478 -76.035)" fill="#fff"/>
        <circle id="Elipse_68" data-name="Elipse 68" cx="2.817" cy="2.817" r="2.817" transform="translate(264.771 -73.218)" fill="#fff"/>
      </g>
    </g>
    <g id="Text">
      <path id="Caminho_94" data-name="Caminho 94" d="M24.614-21.359H21.328L14.415-6.665,7.471-21.359H4.185L1.581,0H5.363L7.1-14.322l5.8,11.9h3.069l5.766-11.935L23.436,0h3.782Zm19.9,13.981a7.155,7.155,0,0,0-7.378-7.471,7.36,7.36,0,0,0-7.6,7.6,7.352,7.352,0,0,0,7.6,7.626,7.7,7.7,0,0,0,6.541-3.286L41.261-4.743a4.808,4.808,0,0,1-3.906,1.86,3.818,3.818,0,0,1-4.123-3.1H44.454C44.485-6.51,44.516-6.975,44.516-7.378ZM33.232-8.494a3.7,3.7,0,0,1,3.937-3.162,3.529,3.529,0,0,1,3.782,3.162ZM52.359.372c2.945,0,5.89-1.612,5.89-4.557,0-1.333-.589-3.379-3.844-4.216l-2.325-.62c-.837-.186-1.55-.62-1.55-1.364,0-.9.775-1.55,1.891-1.55a1.744,1.744,0,0,1,1.922,1.612h3.441c.031-3.224-2.883-4.526-5.456-4.526-3.162,0-5.394,2.046-5.394,4.309,0,1.829.837,3.565,4.092,4.433l1.922.5c1.085.248,1.705.62,1.705,1.426,0,.93-.93,1.643-2.356,1.643-1.519,0-2.387-.93-2.387-1.922H46.531C46.593-1.364,49.476.372,52.359.372Zm13.764,0c2.945,0,5.89-1.612,5.89-4.557,0-1.333-.589-3.379-3.844-4.216l-2.325-.62c-.837-.186-1.55-.62-1.55-1.364,0-.9.775-1.55,1.891-1.55a1.744,1.744,0,0,1,1.922,1.612h3.441c.031-3.224-2.883-4.526-5.456-4.526-3.162,0-5.394,2.046-5.394,4.309,0,1.829.837,3.565,4.092,4.433l1.922.5c1.085.248,1.705.62,1.705,1.426,0,.93-.93,1.643-2.356,1.643-1.519,0-2.387-.93-2.387-1.922H60.295C60.357-1.364,63.24.372,66.123.372Zm23.033-7.75a7.155,7.155,0,0,0-7.378-7.471,7.36,7.36,0,0,0-7.595,7.6A7.352,7.352,0,0,0,81.778.372a7.7,7.7,0,0,0,6.541-3.286L85.9-4.743A4.808,4.808,0,0,1,82-2.883a3.818,3.818,0,0,1-4.123-3.1H89.094C89.125-6.51,89.156-6.975,89.156-7.378ZM77.872-8.494a3.7,3.7,0,0,1,3.937-3.162,3.529,3.529,0,0,1,3.782,3.162Zm22.382-6.355c-1.488,0-3.751.837-4.5,2.666v-2.294h-3.6V0h3.6V-7.688a3.508,3.508,0,0,1,3.689-3.751c1.612,0,3.007,1.24,3.007,3.565V0h3.6V-8.122C106.051-12.338,103.974-14.849,100.254-14.849ZM120.9-12.586a5.9,5.9,0,0,0-4.836-2.263c-3.813,0-7.1,2.945-7.1,7.6,0,4.619,3.317,7.626,7.13,7.626A5.965,5.965,0,0,0,120.9-1.891v.341c0,4.154-1.736,5.735-4.526,5.735A4.452,4.452,0,0,1,112.5,1.86l-2.976,1.364a7.516,7.516,0,0,0,6.851,4.216c4.96,0,8.122-2.821,8.122-9.331V-14.477h-3.6Zm-4.247,9.61a4.173,4.173,0,0,1-4.061-4.309,4.091,4.091,0,0,1,4.061-4.216,4.21,4.21,0,0,1,4.185,4.216A4.215,4.215,0,0,1,116.653-2.976Zm25.916-4.4a7.155,7.155,0,0,0-7.378-7.471,7.36,7.36,0,0,0-7.595,7.6A7.352,7.352,0,0,0,135.191.372a7.7,7.7,0,0,0,6.541-3.286l-2.418-1.829a4.808,4.808,0,0,1-3.906,1.86,3.818,3.818,0,0,1-4.123-3.1h11.222C142.538-6.51,142.569-6.975,142.569-7.378ZM131.285-8.494a3.7,3.7,0,0,1,3.937-3.162A3.529,3.529,0,0,1,139-8.494Zm22.041-6.355c-1.8,0-3.379,1.054-4.154,3.472v-3.1h-3.6V0H149.2V-5.053c0-4.061,1.3-6.417,3.658-6.417a4.528,4.528,0,0,1,2.108.527l.713-3.41A5.3,5.3,0,0,0,153.326-14.849Z" transform="translate(136.546 2986.859)" fill="#4b5155"/>
      <path id="Caminho_95" data-name="Caminho 95" d="M5.516.168a4.933,4.933,0,0,0,4.9-4.984,4.945,4.945,0,0,0-4.9-5,4.936,4.936,0,0,0-4.9,5A4.924,4.924,0,0,0,5.516.168ZM5.5-1.428A3.241,3.241,0,0,1,2.338-4.816,3.253,3.253,0,0,1,5.5-8.218a3.278,3.278,0,0,1,3.206,3.4A3.266,3.266,0,0,1,5.5-1.428ZM15.708-6.706a2.628,2.628,0,0,0-2.17,1.036v-.868H11.914v9.73h1.624V-.868A2.6,2.6,0,0,0,15.722.168a3.236,3.236,0,0,0,3.206-3.43A3.251,3.251,0,0,0,15.708-6.706Zm-.252,5.362a1.9,1.9,0,0,1-1.89-1.918,1.891,1.891,0,0,1,1.89-1.932A1.893,1.893,0,0,1,17.3-3.262,1.871,1.871,0,0,1,15.456-1.344ZM26.838-3.332a3.231,3.231,0,0,0-3.332-3.374,3.324,3.324,0,0,0-3.43,3.43A3.32,3.32,0,0,0,23.506.168,3.476,3.476,0,0,0,26.46-1.316l-1.092-.826A2.171,2.171,0,0,1,23.6-1.3a1.724,1.724,0,0,1-1.862-1.4H26.81C26.824-2.94,26.838-3.15,26.838-3.332Zm-5.1-.5A1.673,1.673,0,0,1,23.52-5.264a1.594,1.594,0,0,1,1.708,1.428ZM31.99-6.706a2.268,2.268,0,0,0-2.03,1.2V-6.538H28.336V0H29.96V-3.472a1.584,1.584,0,0,1,1.666-1.694,1.419,1.419,0,0,1,1.358,1.61V0h1.624V-3.668C34.608-5.572,33.67-6.706,31.99-6.706Z" transform="translate(257.745 2960.341)" fill="#7b8793" stroke="rgba(0,0,0,0)" stroke-width="1"/>
    </g>
  </g>
</svg>
