<svg xmlns="http://www.w3.org/2000/svg" width="18.991" height="18.992" viewBox="0 0 18.991 18.992">
  <path id="phone_1_" data-name="phone (1)" d="M19.6,15.095v2.633a1.757,1.757,0,0,1-1.917,1.755A17.425,17.425,0,0,1,10.1,16.788a17.131,17.131,0,0,1-5.276-5.266,17.347,17.347,0,0,1-2.7-7.609A1.757,1.757,0,0,1,3.869,2H6.507A1.758,1.758,0,0,1,8.266,3.51a11.251,11.251,0,0,0,.616,2.466,1.753,1.753,0,0,1-.4,1.852L7.369,8.942a14.056,14.056,0,0,0,5.276,5.266l1.117-1.115a1.761,1.761,0,0,1,1.856-.395,11.31,11.31,0,0,0,2.471.614A1.756,1.756,0,0,1,19.6,15.095Z" transform="translate(-1.361 -1.25)" fill="none" stroke="#fff" stroke-linecap="round" stroke-linejoin="round" stroke-width="1.5"/>
</svg>
