<svg xmlns="http://www.w3.org/2000/svg" width="17.5" height="17.5" viewBox="0 0 17.5 17.5">
  <g id="button.settings" transform="translate(-0.25 -0.25)">
    <circle id="Elipse_83" data-name="Elipse 83" cx="2.182" cy="2.182" r="2.182" transform="translate(6.818 6.818)" fill="none" stroke="#afbbc6" stroke-linecap="round" stroke-linejoin="round" stroke-width="1.5"/>
    <path id="Caminho_69" data-name="Caminho 69" d="M14.382,11.182a1.2,1.2,0,0,0,.24,1.324l.044.044a1.455,1.455,0,1,1-2.058,2.058l-.044-.044a1.21,1.21,0,0,0-2.051.858v.124a1.455,1.455,0,1,1-2.909,0V15.48a1.2,1.2,0,0,0-.785-1.1,1.2,1.2,0,0,0-1.324.24l-.044.044a1.455,1.455,0,1,1-2.058-2.058l.044-.044a1.21,1.21,0,0,0-.858-2.051H2.455a1.455,1.455,0,1,1,0-2.909H2.52a1.2,1.2,0,0,0,1.1-.785,1.2,1.2,0,0,0-.24-1.324l-.044-.044A1.455,1.455,0,1,1,5.393,3.393l.044.044a1.2,1.2,0,0,0,1.324.24h.058a1.2,1.2,0,0,0,.727-1.1V2.455a1.455,1.455,0,1,1,2.909,0V2.52a1.21,1.21,0,0,0,2.051.858l.044-.044a1.455,1.455,0,1,1,2.058,2.058l-.044.044a1.2,1.2,0,0,0-.24,1.324v.058a1.2,1.2,0,0,0,1.1.727h.124a1.455,1.455,0,1,1,0,2.909H15.48A1.2,1.2,0,0,0,14.382,11.182Z" transform="translate(0 0)" fill="none" stroke="#afbbc6" stroke-linecap="round" stroke-linejoin="round" stroke-width="1.5"/>
  </g>
</svg>
